<?xml version="1.0" encoding="UTF-8" standalone="no"?>
<svg width="185px" height="43px" viewBox="0 0 185 43" version="1.1" xmlns="http://www.w3.org/2000/svg" xmlns:xlink="http://www.w3.org/1999/xlink">
    <!-- Generator: Sketch 39.1 (31720) - http://www.bohemiancoding.com/sketch -->
    <title>Artboard 4</title>
    <desc>Created with Sketch.</desc>
    <defs></defs>
    <g id="Page-1" stroke="none" stroke-width="1" fill="none" fill-rule="evenodd">
        <g id="Artboard-4" fill="#FFFFFF">
            <g id="Group-2" transform="translate(10.000000, 8.000000)">
                <path d="M7.79075871,15.964 C8.80276377,15.964 9.60392242,15.5921704 10.1942587,14.8485 C10.784595,14.1048296 11.0797587,13.0890064 11.0797587,11.801 L11.0797587,2.923 L14.6677587,2.923 L14.6677587,11.916 C14.6677587,14.2466783 14.0237651,16.0368271 12.7357587,17.2865 C11.4477523,18.5361729 9.79943542,19.161 7.79075871,19.161 C5.782082,19.161 4.12993185,18.5323396 2.83425871,17.275 C1.53858556,16.0176604 0.890758707,14.2313449 0.890758707,11.916 L0.890758707,2.923 L4.47875871,2.923 L4.47875871,11.801 C4.47875871,13.0890064 4.77775572,14.1048296 5.37575871,14.8485 C5.9737617,15.5921704 6.77875365,15.964 7.79075871,15.964 L7.79075871,15.964 Z M21.4987587,12.1 L21.4987587,19 L18.0487587,19 L18.0487587,6.626 L21.4987587,6.626 L21.4987587,8.006 C22.5414306,6.94799471 23.7144189,6.419 25.0177587,6.419 C26.3210986,6.419 27.4135876,6.8789954 28.2952587,7.799 C29.1769298,8.7190046 29.6177587,9.945659 29.6177587,11.479 L29.6177587,19 L26.1677587,19 L26.1677587,12.008 C26.1677587,10.1066572 25.470099,9.156 24.0747587,9.156 C23.3847553,9.156 22.7829279,9.40516417 22.2692587,9.9035 C21.7555895,10.4018358 21.4987587,11.1339952 21.4987587,12.1 L21.4987587,12.1 Z M36.1957587,19 L32.7457587,19 L32.7457587,6.626 L36.1957587,6.626 L36.1957587,19 Z M32.4467587,3.613 C32.4467587,3.04566383 32.6422568,2.56650195 33.0332587,2.1755 C33.4242607,1.78449804 33.9034225,1.589 34.4707587,1.589 C35.0380949,1.589 35.5172568,1.78449804 35.9082587,2.1755 C36.2992607,2.56650195 36.4947587,3.04566383 36.4947587,3.613 C36.4947587,4.18033617 36.2992607,4.65949804 35.9082587,5.0505 C35.5172568,5.44150195 35.0380949,5.637 34.4707587,5.637 C33.9034225,5.637 33.4242607,5.44150195 33.0332587,5.0505 C32.6422568,4.65949804 32.4467587,4.18033617 32.4467587,3.613 L32.4467587,3.613 Z M45.3957587,16.125 C46.5457645,16.125 47.5807541,15.5500057 48.5007587,14.4 L50.5477587,16.7 C48.9530841,18.3560083 47.2281013,19.184 45.3727587,19.184 C43.5174161,19.184 41.9495984,18.5975059 40.6692587,17.4245 C39.388919,16.2514941 38.7487587,14.7181761 38.7487587,12.8245 C38.7487587,10.9308239 39.3965856,9.38983927 40.6922587,8.2015 C41.9879319,7.01316072 43.5250831,6.419 45.3037587,6.419 C46.1930965,6.419 47.0939208,6.60299816 48.0062587,6.971 C48.9185966,7.33900184 49.7197553,7.88332973 50.4097587,8.604 L48.6157587,10.95 C48.21709,10.4746643 47.7302616,10.106668 47.1552587,9.846 C46.5802558,9.58533203 46.0090949,9.455 45.4417587,9.455 C44.5370875,9.455 43.7589286,9.75016371 43.1072587,10.3405 C42.4555888,10.9308363 42.1297587,11.7511614 42.1297587,12.8015 C42.1297587,13.8518386 42.4555888,14.6683304 43.1072587,15.251 C43.7589286,15.8336696 44.5217543,16.125 45.3957587,16.125 L45.3957587,16.125 Z M56.4702587,15.2855 C57.0452616,15.9218365 57.7812542,16.24 58.6782587,16.24 C59.5752632,16.24 60.3112558,15.9218365 60.8862587,15.2855 C61.4612616,14.6491635 61.7487587,13.8250051 61.7487587,12.813 C61.7487587,11.8009949 61.4612616,10.9730032 60.8862587,10.329 C60.3112558,9.68499678 59.5752632,9.363 58.6782587,9.363 C57.7812542,9.363 57.0452616,9.68499678 56.4702587,10.329 C55.8952558,10.9730032 55.6077587,11.8009949 55.6077587,12.813 C55.6077587,13.8250051 55.8952558,14.6491635 56.4702587,15.2855 L56.4702587,15.2855 Z M63.3587587,17.344 C62.1167525,18.5706728 60.5566014,19.184 58.6782587,19.184 C56.799916,19.184 55.2397649,18.5706728 53.9977587,17.344 C52.7557525,16.1173272 52.1347587,14.607009 52.1347587,12.813 C52.1347587,11.018991 52.7557525,9.5048395 53.9977587,8.2705 C55.2397649,7.03616049 56.799916,6.419 58.6782587,6.419 C60.5566014,6.419 62.1167525,7.03616049 63.3587587,8.2705 C64.6007649,9.5048395 65.2217587,11.018991 65.2217587,12.813 C65.2217587,14.607009 64.6007649,16.1173272 63.3587587,17.344 L63.3587587,17.344 Z M74.2837587,9.662 C73.2564202,9.662 72.4897612,10.026163 71.9837587,10.7545 C71.4777562,11.482837 71.2247587,12.444994 71.2247587,13.641 L71.2247587,19 L67.7747587,19 L67.7747587,6.626 L71.2247587,6.626 L71.2247587,8.259 C71.6694276,7.75299747 72.2252554,7.32366843 72.8922587,6.971 C73.559262,6.61833157 74.2377553,6.43433341 74.9277587,6.419 L74.9507587,9.662 L74.2837587,9.662 Z M80.6777587,12.1 L80.6777587,19 L77.2277587,19 L77.2277587,6.626 L80.6777587,6.626 L80.6777587,8.006 C81.7204306,6.94799471 82.8934189,6.419 84.1967587,6.419 C85.5000986,6.419 86.5925876,6.8789954 87.4742587,7.799 C88.3559298,8.7190046 88.7967587,9.945659 88.7967587,11.479 L88.7967587,19 L85.3467587,19 L85.3467587,12.008 C85.3467587,10.1066572 84.649099,9.156 83.2537587,9.156 C82.5637553,9.156 81.9619279,9.40516417 81.4482587,9.9035 C80.9345895,10.4018358 80.6777587,11.1339952 80.6777587,12.1 L80.6777587,12.1 Z M92.9597587,17.321 C91.809753,16.0789938 91.2347587,14.5380092 91.2347587,12.698 C91.2347587,10.8579908 91.7944198,9.35150587 92.9137587,8.1785 C94.0330976,7.00549413 95.3440845,6.419 96.8467587,6.419 C98.3494329,6.419 99.5760873,6.94799471 100.526759,8.006 L100.526759,1.934 L103.976759,1.934 L103.976759,19 L100.526759,19 L100.526759,17.367 C99.5607539,18.5783394 98.3455994,19.184 96.8812587,19.184 C95.4169181,19.184 94.1097645,18.5630062 92.9597587,17.321 L92.9597587,17.321 Z M95.6047587,15.2855 C96.2027617,15.9218365 96.9004214,16.24 97.6977587,16.24 C98.495096,16.24 99.1735892,15.9218365 99.7332587,15.2855 C100.292928,14.6491635 100.572759,13.8288384 100.572759,12.8245 C100.572759,11.8201616 100.292928,10.9845033 99.7332587,10.3175 C99.1735892,9.65049666 98.4874294,9.317 97.6747587,9.317 C96.862088,9.317 96.1644283,9.65432996 95.5817587,10.329 C94.9990891,11.00367 94.7077587,11.8393284 94.7077587,12.836 C94.7077587,13.8326717 95.0067557,14.6491635 95.6047587,15.2855 L95.6047587,15.2855 Z M113.751759,9.662 C112.72442,9.662 111.957761,10.026163 111.451759,10.7545 C110.945756,11.482837 110.692759,12.444994 110.692759,13.641 L110.692759,19 L107.242759,19 L107.242759,6.626 L110.692759,6.626 L110.692759,8.259 C111.137428,7.75299747 111.693255,7.32366843 112.360259,6.971 C113.027262,6.61833157 113.705755,6.43433341 114.395759,6.419 L114.418759,9.662 L113.751759,9.662 Z M127.413759,17.206 C126.018418,18.5246733 124.381601,19.184 122.503259,19.184 C120.624916,19.184 119.072432,18.6051725 117.845759,17.4475 C116.619086,16.2898275 116.005759,14.7373431 116.005759,12.79 C116.005759,10.8426569 116.630586,9.29400575 117.880259,8.144 C119.129932,6.99399425 120.60575,6.419 122.307759,6.419 C124.009767,6.419 125.454919,6.93266153 126.643259,7.96 C127.831598,8.98733847 128.425759,10.397991 128.425759,12.192 L128.425759,14.032 L119.409759,14.032 C119.517093,14.70667 119.869756,15.2586645 120.467759,15.688 C121.065762,16.1173355 121.740422,16.332 122.491759,16.332 C123.703098,16.332 124.699755,15.9256707 125.481759,15.113 L127.413759,17.206 Z M124.101759,9.869 C123.626423,9.47033134 123.047595,9.271 122.365259,9.271 C121.682922,9.271 121.058095,9.47799793 120.490759,9.892 C119.923423,10.3060021 119.593759,10.8656631 119.501759,11.571 L124.929759,11.571 C124.853092,10.8349963 124.577094,10.2676687 124.101759,9.869 L124.101759,9.869 Z M141.420759,19 L138.177759,19 L138.177759,17.505 C137.288421,18.6243389 136.188265,19.184 134.877259,19.184 C133.566252,19.184 132.466096,18.8045038 131.576759,18.0455 C130.687421,17.2864962 130.242759,16.2745063 130.242759,15.0095 C130.242759,13.7444937 130.702754,12.7976698 131.622759,12.169 C132.542763,11.5403302 133.800084,11.226 135.394759,11.226 L137.970759,11.226 L137.970759,11.157 C137.970759,9.83832674 137.273099,9.179 135.877759,9.179 C135.279756,9.179 134.647262,9.29783214 133.980259,9.5355 C133.313255,9.77316785 132.749761,10.0683316 132.289759,10.421 L130.748759,8.19 C132.3741,7.00932743 134.229415,6.419 136.314759,6.419 C137.817433,6.419 139.044087,6.79466291 139.994759,7.546 C140.94543,8.29733709 141.420759,9.48565854 141.420759,11.111 L141.420759,19 Z M137.947759,14.285 L137.947759,13.687 L135.785759,13.687 C134.405752,13.687 133.715759,14.116329 133.715759,14.975 C133.715759,15.4196689 133.88059,15.7608321 134.210259,15.9985 C134.539927,16.2361679 135.011422,16.355 135.624759,16.355 C136.238095,16.355 136.77859,16.1671685 137.246259,15.7915 C137.713928,15.4158315 137.947759,14.9136698 137.947759,14.285 L137.947759,14.285 Z M158.545518,6.46383289 C157.952715,6.54518193 157.361965,6.73723682 156.773259,7.04 C155.968255,7.45400207 155.328094,8.03666291 154.852759,8.788 C154.530757,8.12866337 154.051595,7.5690023 153.415259,7.109 C152.778922,6.6489977 152.069763,6.419 151.287759,6.419 C150.061086,6.419 148.97243,6.9556613 148.021759,8.029 L148.021759,6.626 L144.571759,6.626 L144.571759,19 L148.021759,19 L148.021759,12.33 C148.021759,11.3639952 148.278589,10.6318358 148.792259,10.1335 C149.305928,9.63516417 149.896255,9.386 150.563259,9.386 C151.230262,9.386 151.713257,9.6159977 152.012259,10.076 C152.31126,10.5360023 152.460759,11.2566618 152.460759,12.238 L152.460759,19 L155.933759,19 L155.933759,12.33 C155.933759,11.3639952 156.186756,10.6318358 156.692759,10.1335 C157.198761,9.63516417 157.796755,9.386 158.486759,9.386 C159.882099,9.386 160.579759,10.3366572 160.579759,12.238 L160.579759,19 L164.052759,19 L164.052759,11.479 C164.052759,11.1462298 164.034466,10.8293878 163.997881,10.5284735 C163.966425,10.5314589 163.934633,10.5335416 163.902502,10.5346908 C162.114499,10.598645 158.060326,8.46739998 158.476479,6.70975582 C158.496547,6.62500106 158.519673,6.54305123 158.545518,6.46383289 Z" id="Combined-Shape"></path>
                <g id="Group" transform="translate(163.445727, 4.945727) rotate(6.000000) translate(-163.445727, -4.945727) translate(158.945727, 0.445727)">
                    <path d="M3.12768538,4.98943057 C2.99063148,4.8415306 2.71946798,4.77856886 2.52638013,4.85830755 C2.52638013,4.85830755 1.2329581,5.22899681 0.922169452,6.41072574 C0.611380804,7.59245467 3.63908634,9.02536921 4.97438828,8.98237049 C6.30969022,8.93937177 6.86306424,6.95308298 6.77378883,6.57335498 C4.32565548,6.53262523 3.12768538,4.98943057 3.12768538,4.98943057" id="Path-2"></path>
                    <path d="M4.3339166,2.94090635 C4.3339166,2.94090635 3.4459068,3.18144873 3.21281531,4.06774543 C2.97972383,4.95404213 5.25050297,6.02872803 6.25197943,5.99647899 C7.25345589,5.96422995 7.68689069,4.54148341 7.61993413,4.25668741 C5.78383412,4.2261401 4.93847858,3.06249936 4.93847858,3.06249936 C4.79618526,2.91803672 4.52185643,2.85890327 4.3339166,2.94090635 Z" id="Path-2"></path>
                    <path d="M6.08079403,1.47478043 C6.01993432,1.52635034 5.48674259,1.65297541 5.28950982,2.37992234 C5.09227706,3.10686928 6.74211294,3.92610333 7.4838975,3.87545146 C8.22568207,3.8247996 8.30150101,2.61005681 8.25993432,2.37992237 C6.9024602,2.3998119 6.77113437,1.72859754 6.64785244,1.57389081 C6.55326765,1.42522675 6.26348141,1.37765704 6.08079403,1.47478043 Z" id="Path-2"></path>
                    <path d="M6.76660099,1.12185596 C6.73370553,0.717361582 8.79326777,0.00949641364 8.79326777,0.00949641364 C8.79326777,0.00949641364 8.83435414,0.624003188 8.79326775,1.02073237 C8.75218135,1.41746155 8.89993435,2.13309192 8.15326767,2.03196832 C7.29993434,1.93084473 6.79949644,1.52635035 6.76660099,1.12185596 Z" id="Path-3"></path>
                </g>
            </g>
        </g>
    </g>
</svg>